<?xml version="1.0"?>
<svg xmlns="http://www.w3.org/2000/svg" viewBox="0 0 50 50">
    <path style="line-height:normal;text-indent:0;text-align:start;text-decoration-line:none;text-decoration-style:solid;text-decoration-color:#000;text-transform:none;block-progression:tb;isolation:auto;mix-blend-mode:normal" d="M 0 7 L 0 8 L 0 39 L 50 39 L 50 7 L 0 7 z M 2 9 L 48 9 L 48 37 L 2 37 L 2 9 z M 20 17 L 24.033203 24.259766 L 24.033203 30 L 26.033203 30 L 26.033203 24.259766 L 30.064453 17 L 27.777344 17 L 25.033203 21.939453 L 22.287109 17 L 20 17 z M 11 41 A 1.0001 1.0001 0 1 0 11 43 L 39 43 A 1.0001 1.0001 0 1 0 39 41 L 11 41 z" font-weight="400" font-family="sans-serif" white-space="normal" overflow="visible"/>
</svg>
